:FULLY-SPECIFIED
:FORCE-ALL-JOINTS-BE-3DOF
:DEGREES
257
root 3.15007 17.0073 20.1907 0.448062 11.6904 0.191895
lfemur -24.2142 -4.6687 -21.4431
ltibia 27.3109 0 0
lfoot -7.76099 2.63864 0.299056
ltoes -7.16207 0 0
rfemur -0.387132 3.74715 22.8846
rtibia 30.941 0 0
rfoot -7.41061 -1.29943 -0.04205
rtoes -12.3381 0 0
lowerback 5.86794 0.724189 -0.959859
upperback 0.0261817 0.975251 2.23556
thorax -3.20887 0.52579 2.78948
lowerneck -15.6795 -2.9797 -9.21348
upperneck 23.9935 -2.74619 4.19343
head 10.4801 -1.58215 2.67852
lclavicle -9.63623e-15 -6.75866e-15 6.84872e-30
lhumerus -34.8372 14.0183 80.9447
lradius 20.6747 0 0
lwrist -18.8191 0 0
lhand -11.1632 19.6542 -0.0990693
lfingers 7.12502 0 0
lthumb 14.8622 49.0822 -0.0995756
rclavicle -9.63623e-15 -6.75866e-15 6.84872e-30
rhumerus -32.6332 -12.9326 -75.0354
rradius 40.7172 0 0
rwrist 0.293134 0 0
rhand -17.2894 12.5674 -0.0220006
rfingers 7.12502 0 0
rthumb 8.95526 -17.2035 -0.0180075
258
root 3.21629 17.0225 20.389 0.454045 11.9391 0.606674
lfemur -23.4673 -4.63324 -21.8416
ltibia 27.8705 0 0
lfoot -8.04731 1.24671 0.246878
ltoes -4.37783 0 0
rfemur -1.01064 3.99006 22.536
rtibia 31.9556 0 0
rfoot -4.92881 -0.888522 -0.015875
rtoes -12.0174 0 0
lowerback 5.89125 0.667183 -1.42026
upperback -0.00165262 0.863473 2.16214
thorax -3.26002 0.478362 2.98261
lowerneck -15.5561 -2.97789 -9.14158
upperneck 24.1246 -2.79118 4.25562
head 10.5069 -1.59013 2.6855
lclavicle 3.21932e-14 1.43125e-14 2.66489e-31
lhumerus -34.6452 15.6642 79.8557
lradius 20.0926 0 0
lwrist -20.4481 0 0
lhand -11.5039 19.8159 -0.10175
lfingers 7.12502 0 0
lthumb 14.5336 49.2607 -0.10354
rclavicle 3.21932e-14 1.43125e-14 2.66489e-31
rhumerus -33.0772 -13.7435 -74.6555
rradius 40.1757 0 0
rwrist 0.870959 0 0
rhand -17.2852 12.4145 -0.0215664
rfingers 7.12502 0 0
rthumb 8.95943 -17.3583 -0.0179498
259
root 3.27849 17.0271 20.5756 0.549023 12.0267 1.1922
lfemur -22.7365 -4.63328 -22.3555
ltibia 28.2678 0 0
lfoot -7.71385 0.357384 0.227107
ltoes -1.89425 0 0
rfemur -1.7415 4.24996 21.9288
rtibia 33.097 0 0
rfoot -2.23699 -0.556274 0.0703853
rtoes -10.2852 0 0
lowerback 6.01291 0.722806 -1.89888
upperback -0.0172637 0.89634 1.95662
thorax -3.3532 0.500165 3.02857
lowerneck -15.4805 -3.08746 -9.13457
upperneck 24.1909 -3.0022 4.43744
head 10.534 -1.66489 2.72227
lclavicle -1.41634e-14 -8.74653e-15 -6.95191e-31
lhumerus -34.2576 15.7247 79.6324
lradius 19.9522 0 0
lwrist -20.632 0 0
lhand -11.7433 20.625 -0.0905234
lfingers 7.12502 0 0
lthumb 14.3028 50.085 -0.0928894
rclavicle -1.41634e-14 -8.74653e-15 -6.95191e-31
rhumerus -33.474 -14.6734 -74.3361
rradius 39.5208 0 0
rwrist 1.27663 0 0
rhand -17.4873 12.1284 -0.026757
rfingers 7.12502 0 0
rthumb 8.76446 -17.6537 -0.0231913
260
root 3.33977 17.0311 20.763 0.694086 12.2153 1.82987
lfemur -21.9384 -4.73165 -22.9927
ltibia 28.5501 0 0
lfoot -6.99354 -0.497064 0.213332
ltoes 0.845446 0 0
rfemur -2.49234 4.23618 21.1074
rtibia 34.2342 0 0
rfoot 0.588525 -0.148009 0.233654
rtoes -7.35001 0 0
lowerback 6.02908 0.683635 -2.49756
upperback 0.0455131 0.796118 1.82492
thorax -3.30319 0.456745 3.2363
lowerneck -15.4193 -3.15036 -9.36878
upperneck 24.1338 -3.09403 4.67186
head 10.5164 -1.70046 2.83317
lclavicle -5.5784e-14 -8.66704e-15 -5.18461e-30
lhumerus -33.8823 14.9715 80.1101
lradius 20.2397 0 0
lwrist -19.8707 0 0
lhand -11.7919 21.27 -0.0802013
lfingers 7.12502 0 0
lthumb 14.2556 50.7272 -0.0841072
rclavicle -5.5784e-14 -8.66704e-15 -5.18461e-30
rhumerus -33.7422 -14.8887 -74.2266
rradius 38.9335 0 0
rwrist 1.10817 0 0
rhand -17.9921 11.6997 -0.0368332
rfingers 7.12502 0 0
rthumb 8.27723 -18.1013 -0.0328817
261
root 3.40374 17.0381 20.957 0.681088 12.4635 2.12822
lfemur -21.207 -4.43032 -23.4078
ltibia 29.0304 0 0
lfoot -6.60558 -1.83535 0.186576
ltoes 1.80676 0 0
rfemur -3.20219 4.15291 20.5967
rtibia 35.2651 0 0
rfoot 3.32613 -0.028146 0.433133
rtoes -6.02587 0 0
lowerback 5.95039 0.596624 -2.69711
upperback 0.142041 0.663815 1.74655
thorax -3.15159 0.390092 3.2814
lowerneck -15.5389 -3.19677 -9.67186
upperneck 24.2012 -3.14553 4.96591
head 10.5792 -1.71866 2.98435
lclavicle 3.37436e-15 -2.3059e-15 1.0493e-31
lhumerus -33.5394 14.734 80.4007
lradius 20.4432 0 0
lwrist -20.3924 0 0
lhand -12.1412 24.0542 -0.019871
lfingers 7.12502 0 0
lthumb 13.9192 53.5384 -0.0251083
rclavicle 3.37436e-15 -2.3059e-15 1.0493e-31
rhumerus -34.2408 -15.3891 -73.9837
rradius 38.5294 0 0
rwrist 1.13045 0 0
rhand -18.0182 11.7492 -0.0378192
rfingers 7.12502 0 0
rthumb 8.25207 -18.0525 -0.0337807
262
root 3.47624 17.0419 21.1358 0.653584 12.6066 2.29015
lfemur -20.4655 -4.16319 -23.7767
ltibia 29.3478 0 0
lfoot -6.53358 -2.49143 0.184058
ltoes 2.69599 0 0
rfemur -4.03786 4.11019 20.0712
rtibia 36.2836 0 0
rfoot 5.86196 0.091269 0.637597
rtoes -4.39422 0 0
lowerback 5.89397 0.568202 -2.50043
upperback 0.154495 0.633708 1.58217
thorax -3.08674 0.370061 3.0027
lowerneck -15.6664 -3.27199 -9.77293
upperneck 24.3032 -3.25116 5.10652
head 10.6548 -1.76182 3.03935
lclavicle -4.13522e-14 -2.10712e-15 -3.15011e-33
lhumerus -33.4959 18.6153 77.754
lradius 19.5615 0 0
lwrist -24.2271 0 0
lhand -11.6935 20.9691 -0.0880056
lfingers 7.12502 0 0
lthumb 14.3506 50.4215 -0.091293
rclavicle -4.13522e-14 -2.10712e-15 -3.15011e-33
rhumerus -35.0173 -16.4258 -73.5246
rradius 38.2944 0 0
rwrist 1.67474 0 0
rhand -17.7852 11.8192 -0.0285074
rfingers 7.12502 0 0
rthumb 8.47685 -17.9728 -0.0245977
263
root 3.49437 17.0368 21.3731 -0.863313 11.7455 0.862802
lfemur -19.2631 -3.2784 -21.8299
ltibia 30.3018 0 0
lfoot -6.97104 -2.34205 0.207591
ltoes 3.23584 0 0
rfemur -4.21918 5.96622 22.1733
rtibia 37.1104 0 0
rfoot 8.78341 -0.944017 0.763719
rtoes -1.70527 0 0
lowerback 6.38658 0.864594 -1.76574
upperback 0.44231 1.09108 2.14116
thorax -3.06197 0.591866 3.11668
lowerneck -15.6012 -3.2592 -9.6398
upperneck 24.1413 -3.26999 5.09316
head 10.5803 -1.75896 3.00713
lclavicle 1.44615e-15 -3.37934e-15 1.85402e-30
lhumerus -33.3734 20.4863 76.6469
lradius 19.5187 0 0
lwrist -25.7394 0 0
lhand -11.7244 20.4846 -0.0939397
lfingers 7.12502 0 0
lthumb 14.3209 49.9413 -0.0965739
rclavicle 1.44615e-15 -3.37934e-15 1.85402e-30
rhumerus -35.674 -17.3546 -73.1301
rradius 37.9865 0 0
rwrist 2.5398 0 0
rhand -17.4732 11.6062 -0.0198693
rfingers 7.12502 0 0
rthumb 8.778 -18.1744 -0.0163784
